HIERARCHY
ROOT Hips
{
	OFFSET 0.0000 0.0000 0.0000
	CHANNELS 6 Xposition Yposition Zposition Zrotation Xrotation Yrotation
	JOINT Ab
	{
		OFFSET -0.0000 8.0846 -0.0000
		CHANNELS 3 Zrotation Xrotation Yrotation
		JOINT Chest
		{
			OFFSET -0.0000 25.7002 -0.0000
			CHANNELS 3 Zrotation Xrotation Yrotation
			JOINT Neck
			{
				OFFSET -0.0000 25.7002 0.0000
				CHANNELS 3 Zrotation Xrotation Yrotation
				JOINT Head
				{
					OFFSET -0.0000 10.7556 0.0000
					CHANNELS 3 Zrotation Xrotation Yrotation
					End Site
					{
						OFFSET -0.0000 16.6222 0.0000
					}
				}
			}
			JOINT LeftCollar
			{
				OFFSET -0.0000 25.7002 0.0000
				CHANNELS 3 Zrotation Xrotation Yrotation
				JOINT LeftShoulder
				{
					OFFSET 19.5556 -0.0000 0.0000
					CHANNELS 3 Zrotation Xrotation Yrotation
					JOINT LeftElbow
					{
						OFFSET 27.2833 0.0000 0.0000
						CHANNELS 3 Zrotation Xrotation Yrotation
						JOINT LeftWrist
						{
							OFFSET 23.7914 0.0000 0.0000
							CHANNELS 3 Zrotation Xrotation Yrotation
							End Site
							{
								OFFSET 0.0000 -14.6667 0.0000
							}
						}
					}
				}
			}
			JOINT RightCollar
			{
				OFFSET -0.0000 25.7002 0.0000
				CHANNELS 3 Zrotation Xrotation Yrotation
				JOINT RightShoulder
				{
					OFFSET -19.5556 0.0000 0.0000
					CHANNELS 3 Zrotation Xrotation Yrotation
					JOINT RightElbow
					{
						OFFSET -27.2833 0.0000 0.0000
						CHANNELS 3 Zrotation Xrotation Yrotation
						JOINT RightWrist
						{
							OFFSET -23.7914 0.0000 0.0000
							CHANNELS 3 Zrotation Xrotation Yrotation
							End Site
							{
								OFFSET -0.0000 -14.6667 0.0000
							}
						}
					}
				}
			}
		}
	}
	JOINT LeftHip
	{
		OFFSET 11.7333 0.0000 0.0000
		CHANNELS 3 Zrotation Xrotation Yrotation
		JOINT LeftKnee
		{
			OFFSET -0.0000 -39.5330 0.0000
			CHANNELS 3 Zrotation Xrotation Yrotation
			JOINT LeftAnkle
			{
				OFFSET -0.0000 -43.0504 0.0000
				CHANNELS 3 Zrotation Xrotation Yrotation
				End Site
				{
					OFFSET -0.0000 -4.8889 16.6222
				}
			}
		}
	}
	JOINT RightHip
	{
		OFFSET -11.7333 0.0000 0.0000
		CHANNELS 3 Zrotation Xrotation Yrotation
		JOINT RightKnee
		{
			OFFSET -0.0000 -39.5330 0.0000
			CHANNELS 3 Zrotation Xrotation Yrotation
			JOINT RightAnkle
			{
				OFFSET -0.0000 -43.0504 0.0000
				CHANNELS 3 Zrotation Xrotation Yrotation
				End Site
				{
					OFFSET -0.0000 -4.8889 16.6222
				}
			}
		}
	}
}
MOTION
Frames: 17
Frame Time: 0.010000
-4.5390 86.6148 149.5503 3.5460 348.7064 181.3795 2.5690 11.2335 352.2411 4.0167 7.5934 352.2170 11.5030 337.0094 8.8019 351.2812 12.2879 7.5255 338.0159 356.6114 17.5228 14.5084 52.1476 285.3704 69.6662 339.9148 331.3504 88.1468 355.2509 31.9766 17.0392 358.1921 347.6700 67.9896 33.8076 342.4649 349.4484 356.8242 34.1565 277.3284 345.3026 38.5585 4.3777 4.9519 358.3720 356.7947 22.7544 356.4065 342.2485 348.0135 20.1409 0.6416 314.8164 6.2460 9.1564 47.8620 349.6761 359.6073 341.0433 339.7637 
-4.3864 86.3947 148.4596 3.6111 348.9467 181.5122 3.1141 11.5429 352.1430 3.9241 7.5544 352.1889 11.3470 336.9121 8.8507 351.1883 12.1091 7.5960 337.9245 356.5272 17.8276 15.1968 52.3982 284.8387 69.8007 339.8848 331.4054 88.1964 355.1078 32.1863 16.7613 358.1862 347.4981 68.0013 34.1351 342.6092 349.4892 356.7839 34.4955 277.1278 345.1885 38.6336 4.5074 4.7787 358.7999 356.5765 24.5743 356.1157 342.2508 347.7229 19.9180 0.1139 314.2313 5.1305 8.8424 49.0032 351.7432 358.8804 340.9492 338.8222 
-4.1590 86.1564 147.3306 3.5634 349.0276 181.4228 3.2801 11.6109 352.2170 4.0259 7.6406 352.2719 11.3507 336.8754 9.0272 350.9519 11.8666 7.7827 337.8560 356.4858 18.0720 15.7214 52.8238 284.4260 69.8377 339.8366 331.2616 88.4073 355.1491 32.4221 16.4317 358.2009 347.3715 68.2499 34.5852 343.1476 349.2067 356.6237 34.4833 276.7799 344.9754 38.9343 4.7914 4.3469 358.1321 355.8536 26.8671 356.3545 342.1347 347.2145 20.1298 359.8704 314.5177 4.5015 9.1468 49.7965 352.1367 358.8537 340.1119 338.3990 
-3.9273 85.8819 146.2000 3.5629 349.1353 181.4454 3.5395 11.7622 352.2236 4.1610 7.6309 352.3013 11.2691 336.8953 9.1415 350.7046 11.5119 7.8993 337.7772 356.4028 18.4219 15.6014 53.2004 284.6004 69.7957 339.7369 330.9447 88.4283 355.0374 32.4462 16.3168 358.2263 347.4300 68.4018 34.8965 343.5115 348.8528 356.4500 34.6275 276.3521 344.6910 38.3732 5.0218 3.7194 357.9801 355.1409 29.3569 356.4459 341.8171 346.8813 20.2386 359.6845 314.5971 3.9319 9.5189 50.2815 351.8878 359.3061 339.4025 338.2843 
-3.7181 85.5719 145.1478 3.5315 349.2560 181.4884 3.7156 11.9383 352.2374 4.3831 7.6565 352.3230 11.4776 336.7435 9.3853 350.1273 11.2977 8.1191 337.6527 356.3013 18.7036 15.5770 53.6754 284.6826 69.6833 339.6257 330.6501 88.4647 354.9071 32.3512 16.3423 358.2311 347.6406 68.3589 35.1796 344.0145 348.4619 356.2780 34.8964 275.3429 344.6461 37.4631 5.3110 2.8480 357.6500 354.2612 32.3518 356.4791 341.5978 346.5319 20.5574 359.6307 314.7118 3.4686 9.6889 50.8161 352.1603 359.0151 338.8424 338.3001 
-3.4824 85.2602 144.0950 3.6187 349.4037 181.5736 4.0920 12.1937 352.2138 4.5223 7.6190 352.3411 11.5485 336.6881 9.6018 349.7713 10.8987 8.3091 337.4998 356.1981 19.0720 15.1595 54.1855 285.1377 69.3350 339.4679 330.0708 88.7854 355.0456 32.2770 16.3124 358.2243 347.7711 68.5639 35.4842 344.5367 347.6129 355.8937 35.1273 274.6656 344.5572 36.0934 5.5448 1.8216 357.4094 353.3720 35.5995 356.6114 341.7010 346.4431 20.8972 359.7115 314.4509 2.7167 9.8054 51.3065 352.2372 359.4078 338.2731 338.1505 
-3.2099 84.9133 143.0661 3.7062 349.4041 181.4288 4.3552 12.3508 352.3185 4.6834 7.6279 352.4695 11.6792 336.5329 9.9170 349.4951 10.5441 8.5759 337.3661 356.1003 19.4221 14.3788 54.7979 285.9198 68.8562 339.2767 329.4036 89.2576 355.1476 32.1719 16.3098 358.2461 347.9942 68.7040 35.9064 345.2649 346.7371 355.5479 35.2487 273.5292 344.4701 34.4349 5.6987 1.5329 359.2213 354.4025 37.6065 355.6918 342.4503 348.3606 20.1967 0.0128 314.9548 2.2298 9.8571 51.5470 352.3339 359.3368 337.6985 338.3573 
-2.8971 84.5764 142.0920 4.0046 349.2220 181.5114 4.6469 12.3960 352.4414 5.0980 7.6290 352.5983 11.8762 336.1874 10.1672 349.1334 10.3387 8.7513 337.3641 356.0541 19.6573 12.5561 55.5039 287.5250 68.1692 339.0632 328.5667 89.8235 355.3626 31.8783 16.4536 358.2675 348.1613 68.7269 36.1069 346.0831 345.7086 355.1252 35.7013 272.1297 345.2669 33.0150 6.1004 0.5554 0.2130 354.2375 40.7633 355.8517 344.2660 349.7454 20.1871 0.3499 315.9867 1.7794 9.8377 51.5974 352.7055 359.3522 337.0014 338.0144 
-2.6410 84.2247 140.8846 4.2002 349.7040 181.3039 4.8467 12.7661 352.7039 5.4342 8.0662 352.8544 12.2241 335.8864 10.4095 348.5503 10.0157 8.9026 337.2777 356.0175 19.7691 11.2928 56.3445 288.6952 67.6668 338.8104 328.0261 89.7147 355.3311 31.2519 16.9056 358.1930 348.0216 68.0338 36.5830 347.3103 344.6690 354.7160 36.0619 271.8016 344.9027 31.7291 7.1600 357.0368 357.3671 349.1752 47.0184 0.4980 345.8602 349.6808 21.0262 0.8041 316.5746 1.5311 9.6407 51.7019 352.9894 359.1910 336.3551 337.9154 
-2.3577 83.8804 139.7033 4.2900 349.9634 180.9699 4.8060 12.9338 353.0418 5.8625 8.5115 353.1389 12.5428 335.7446 10.7173 347.9937 9.6867 9.1641 337.2529 355.9011 20.6789 14.9198 57.6730 285.0589 68.5478 339.0980 330.2993 89.7401 354.5791 31.5441 17.2634 358.1385 347.9119 67.5071 37.0381 348.6603 343.4611 354.2204 36.3716 270.8897 344.6453 30.4710 7.8524 355.8174 357.6154 347.1820 50.6366 2.9364 346.0735 351.0235 21.4250 1.2294 317.2452 1.0275 9.3507 51.8567 353.6911 359.2901 335.5817 337.7733 
-2.0902 83.5238 138.5822 4.4643 350.1428 180.7867 4.9563 13.1599 353.2821 6.2101 8.7609 353.3647 12.4612 335.5000 10.7108 348.0215 9.2088 9.0864 337.2103 355.8384 20.5857 12.8585 58.7444 286.9367 67.8382 339.4864 329.7297 90.6238 355.2521 32.2716 17.4315 358.1786 348.4145 67.7497 37.1261 349.5195 341.9071 353.5563 36.7454 270.1075 344.6413 29.4567 8.4657 354.6615 357.6840 345.0203 54.3820 5.0004 348.2366 352.8797 22.1069 1.8425 317.9524 0.6056 8.8966 52.0358 354.5199 358.9630 334.9409 337.5282 
-1.8133 83.1635 137.4613 4.6495 350.1704 180.4451 5.1271 13.4549 353.6128 6.3561 8.7990 353.7187 12.6955 335.3522 10.8740 347.7264 8.8445 9.1493 337.2260 355.8586 20.4436 9.7967 59.7162 289.6514 66.6371 339.6986 328.8836 91.3677 355.5378 32.4653 17.8649 358.1627 348.7500 67.3228 37.4184 350.7502 340.4550 352.9982 36.9348 268.7487 344.0169 27.6204 9.0813 352.9286 357.8722 342.0557 58.3541 8.0740 349.3560 354.5729 22.7159 2.5405 318.7609 0.2478 8.3133 52.2569 355.4338 359.0400 334.4517 337.7515 
-1.5443 82.8131 136.3304 4.8564 350.2337 180.0353 5.3378 13.7484 353.8939 6.4837 8.8892 354.0225 12.6154 335.1609 10.9247 347.7191 8.4676 9.1624 337.2373 355.8671 20.3539 6.9143 60.6303 292.1376 65.2469 339.9086 328.2847 91.8183 355.6134 32.3831 18.3419 358.1624 349.1862 66.6054 37.7055 352.1802 339.1393 352.4968 37.3792 266.7779 343.8927 25.8298 9.6841 351.0648 357.9705 338.3750 62.2918 11.7778 352.5901 356.2959 23.5900 3.2438 319.1202 0.0915 7.9703 52.9886 356.4429 357.1060 334.4523 337.7290 
-1.2851 82.4529 135.2385 5.0753 350.0509 179.5201 5.4361 13.8224 354.3169 6.6560 9.0055 354.4410 12.7326 334.9560 11.0225 347.3896 8.1537 9.2012 337.3450 355.8728 20.4310 3.8536 61.5369 294.5737 63.6631 340.2667 327.9445 92.3669 355.6829 32.0267 18.9806 358.1376 349.4879 65.3126 38.0247 354.1575 338.2261 352.1684 37.8831 264.5733 344.0429 24.8423 10.2861 349.1901 358.1822 334.2177 66.1255 15.4582 355.7051 356.8573 24.4267 3.9269 319.3067 0.2109 7.8658 54.2668 357.1831 356.9261 333.2402 337.4081 
-1.0425 82.1012 134.0549 5.3315 350.0910 178.8435 5.5379 14.0569 354.8749 6.7590 9.0851 355.0152 12.8405 335.1540 11.0737 347.0847 7.5263 9.1847 337.4642 355.9125 20.4073 359.1330 62.1474 298.7144 61.5557 340.6889 327.0226 93.2533 355.6194 31.3604 19.6426 358.1322 349.8637 64.1909 38.2798 355.9413 336.9713 351.5832 38.3498 262.7399 343.5391 23.5780 10.8467 346.9555 358.2372 328.7698 69.5336 20.0528 355.2196 356.3895 24.8368 4.5074 319.4288 0.3309 7.8003 55.5180 357.6253 357.1692 332.3407 337.6098 
-0.8213 81.7756 132.8630 5.6268 350.0663 178.1602 5.7080 14.2248 355.2924 6.9139 9.1285 355.4452 12.4567 335.4364 10.9974 347.1702 6.7944 9.1559 337.6425 356.0015 20.0330 352.4196 62.2958 304.9196 58.8014 341.0574 325.3182 94.4182 355.8328 29.7487 20.2577 358.1418 350.2346 62.7078 38.5383 358.2188 335.8946 351.0868 38.9975 260.8209 343.1314 23.1223 11.3704 344.9557 358.1089 320.4272 72.3053 27.8114 355.0436 354.8524 25.1192 5.1814 319.6255 0.2792 7.3473 56.7096 358.7213 356.6821 331.7362 337.3045 
-0.6117 81.4953 131.6533 5.8847 350.0388 177.4190 5.9324 14.3808 355.5770 6.9181 9.3829 355.7495 12.0549 335.2835 11.0959 347.4211 6.3338 9.2802 337.7013 356.0596 19.6399 346.1834 62.5594 310.8646 56.3244 341.3126 324.1308 94.7306 356.4010 28.3575 21.0653 358.1557 350.8560 60.9728 38.4085 0.3118 335.0103 350.5569 40.3078 259.2573 342.7095 23.1817 11.7704 343.1022 358.2702 313.3852 74.3084 34.7964 355.2435 355.3966 24.4584 5.9719 320.0366 0.2577 6.8113 57.4594 0.0056 356.4634 331.0019 337.3690 
